# xmcd
#
# Track frame offsets:
#	150
#	14467
#	29755
#	50080
#	64847
#	77427
#	94160
#	108807
#	122135
#	137157
#	154387
#	170902
#	183447
#
# Disc length: 2621 seconds
#
# Revision: 1
# Processed by: cddbd v1.5.1PL2 Copyright (c) Steve Scherf et al.
# Submitted via: audiograbber 1.83.01
#
DISCID=b70a3b0d
DTITLE=CHICO PESSOA - E OS PESSOAL DO FORRÓ
DYEAR=1900
DGENRE=
TTITLE0=O FOLE RONCOU
TTITLE1=APAIXONADO MENTE
TTITLE2=É SEMPRE ASSIM
TTITLE3=SÁ MARICOTA
TTITLE4=AMANDO GOSTOSO
TTITLE5=MINHA MORENA
TTITLE6=O CARA
TTITLE7=TOQUE TOQUE SANFONEIRO
TTITLE8=PRA VOCÊ
TTITLE9=AMOR SEM LIMITE
TTITLE10=TE JUREI
TTITLE11=MAIS UMA VEZ ESTOU AQUI
TTITLE12=SÓ FALTA VOCÊ
EXTD=
EXTT0=
EXTT1=
EXTT2=
EXTT3=
EXTT4=
EXTT5=
EXTT6=
EXTT7=
EXTT8=
EXTT9=
EXTT10=
EXTT11=
EXTT12=
PLAYORDER=
